<svg xmlns="http://www.w3.org/2000/svg" viewBox="0 0 64 64" fill="none">
  <!-- Cap shadow -->
  <ellipse cx="32" cy="36" rx="22" ry="7" fill="#1a0000" opacity="0.5"/>
  <!-- Cap -->
  <ellipse cx="32" cy="26" rx="26" ry="18" fill="#7f1d1d"/>
  <ellipse cx="32" cy="26" rx="26" ry="18" fill="url(#capG)"/>
  <!-- Cap shading underside -->
  <ellipse cx="32" cy="33" rx="22" ry="6" fill="#0d0000" opacity="0.55"/>
  <!-- Stem -->
  <path d="M21 34 Q20 52 24 56 Q32 59 40 56 Q44 52 43 34 Q38 38 32 38 Q26 38 21 34Z" fill="#991b1b" opacity="0.7"/>
  <path d="M23 34 Q22 50 26 54 Q32 57 38 54 Q42 50 41 34 Q37 37 32 37 Q27 37 23 34Z" fill="#b91c1c" opacity="0.45"/>
  <!-- Annulus -->
  <ellipse cx="32" cy="41" rx="10" ry="3" fill="#7f1d1d" opacity="0.55"/>
  <!-- White spots -->
  <circle cx="19" cy="20" r="3.5" fill="white" opacity="0.2"/>
  <circle cx="32" cy="14" r="4.5" fill="white" opacity="0.2"/>
  <circle cx="44" cy="21" r="3" fill="white" opacity="0.2"/>
  <circle cx="25" cy="28" r="2.5" fill="white" opacity="0.14"/>
  <circle cx="40" cy="27" r="2.5" fill="white" opacity="0.14"/>
  <defs>
    <radialGradient id="capG" cx="38%" cy="30%" r="65%">
      <stop offset="0%" stop-color="#ef4444" stop-opacity="0.95"/>
      <stop offset="100%" stop-color="#7f1d1d" stop-opacity="0.6"/>
    </radialGradient>
  </defs>
</svg>
